<svg width="20" height="20" viewBox="0 0 20 20" fill="none" xmlns="http://www.w3.org/2000/svg">
<path fill-rule="evenodd" clip-rule="evenodd" d="M5.83335 2.66675C4.08445 2.66675 2.66669 4.08451 2.66669 5.83342V14.1667C2.66669 15.9157 4.08445 17.3334 5.83335 17.3334H14.1667C15.9156 17.3334 17.3334 15.9157 17.3334 14.1667V5.83342C17.3334 4.08451 15.9156 2.66675 14.1667 2.66675H5.83335ZM0.666687 5.83342C0.666687 2.97994 2.97988 0.666748 5.83335 0.666748H14.1667C17.0202 0.666748 19.3334 2.97994 19.3334 5.83342V14.1667C19.3334 17.0202 17.0202 19.3334 14.1667 19.3334H5.83335C2.97988 19.3334 0.666687 17.0202 0.666687 14.1667V5.83342Z" fill="white"/>
<path fill-rule="evenodd" clip-rule="evenodd" d="M10.3783 7.65586C9.89282 7.58387 9.397 7.66679 8.96137 7.89283C8.52574 8.11887 8.17247 8.47652 7.95182 8.91491C7.73117 9.3533 7.65437 9.8501 7.73234 10.3346C7.81031 10.8192 8.03908 11.2668 8.38612 11.6139C8.73316 11.9609 9.18079 12.1897 9.66534 12.2677C10.1499 12.3456 10.6467 12.2688 11.0851 12.0482C11.5235 11.8275 11.8811 11.4742 12.1072 11.0386C12.3332 10.603 12.4161 10.1072 12.3441 9.62169C12.2707 9.12649 12.0399 8.66803 11.686 8.31404C11.332 7.96005 10.8735 7.72929 10.3783 7.65586ZM8.04023 6.11759C8.84926 5.6978 9.77006 5.5438 10.6717 5.67749C11.5913 5.81387 12.4428 6.24241 13.1002 6.89982C13.7576 7.55724 14.1861 8.40866 14.3225 9.32832C14.4562 10.2299 14.3022 11.1507 13.8824 11.9598C13.4626 12.7688 12.7984 13.4249 11.9843 13.8346C11.1701 14.2444 10.2475 14.3871 9.3476 14.2422C8.44772 14.0974 7.6164 13.6726 6.97191 13.0281C6.32741 12.3836 5.90254 11.5523 5.75774 10.6524C5.61293 9.75251 5.75557 8.82988 6.16535 8.01573C6.57513 7.20158 7.2312 6.53738 8.04023 6.11759Z" fill="white"/>
<path fill-rule="evenodd" clip-rule="evenodd" d="M13.5833 5.41675C13.5833 4.86446 14.031 4.41675 14.5833 4.41675H14.5916C15.1439 4.41675 15.5916 4.86446 15.5916 5.41675C15.5916 5.96903 15.1439 6.41675 14.5916 6.41675H14.5833C14.031 6.41675 13.5833 5.96903 13.5833 5.41675Z" fill="white"/>
</svg>
