<svg width="210" height="231" viewBox="0 0 210 231" fill="none" xmlns="http://www.w3.org/2000/svg">
<path d="M154 100.443C155.92 100.103 157.836 99.6759 159.797 99.7959C166.225 100.191 171.132 103.234 174.273 108.787C176.597 112.897 177.636 117.474 178.099 122.181C178.368 124.911 178.524 127.638 178.479 130.378C178.437 132.945 178.022 135.47 177.704 138.011C177.22 141.88 176.47 145.693 175.667 149.504C174.202 156.452 171.692 163.039 168.805 169.492C165.32 177.283 161.451 184.871 156.737 192.009C149.357 203.185 140.402 212.86 129.544 220.74C129.383 220.857 129.207 220.953 128.944 221.118C129.251 217.79 129.612 214.572 130.04 211.359C130.484 208.019 130.957 204.685 131.525 201.365C132.36 196.485 133.216 191.609 134.052 186.729C135.195 180.06 136.619 173.441 137.639 166.75C138.176 163.225 138.761 159.706 139.2 156.169C139.436 154.266 139.218 152.347 138.745 150.468C138.383 154.417 137.805 158.331 137.197 162.238C136.42 167.226 135.435 172.177 134.499 177.137C133.387 183.028 132.381 188.938 131.301 194.835C130.481 199.309 129.754 203.798 129.138 208.303C128.7 211.507 128.286 214.718 128.047 217.949C127.98 218.858 127.855 219.76 127.84 220.676C127.824 221.623 127.456 222.313 126.576 222.88C122.377 225.585 118.128 228.16 113.414 229.914C110.86 230.864 108.312 230.675 105.77 230.207C96.808 228.56 88.436 225.275 80.64 220.612C74.233 216.78 68.408 212.145 63.034 206.955C62.733 206.665 62.532 206.335 62.398 205.941C60.588 200.63 60.086 195.195 60.502 189.601C60.856 184.847 61.912 180.234 62.754 175.572C63.083 173.752 62.711 171.931 62.125 170.197C61.361 167.936 60.492 165.711 59.664 163.472C59.622 163.359 59.542 163.26 59.334 162.906C59.449 164.564 59.59 165.906 60.06 167.224C60.758 169.181 61.421 171.148 61.626 173.25C61.834 175.38 61.319 177.404 60.898 179.44C60.257 182.541 59.839 185.665 59.535 188.817C59.278 191.487 59.218 194.153 59.378 196.818C59.511 199.032 59.953 201.212 60.484 203.367C60.55 203.635 60.606 203.887 60.531 204.295C59.085 202.81 57.869 201.242 56.645 199.684C51.04 192.55 47.305 184.404 43.919 176.077C41.991 171.335 40.524 166.448 39.695 161.388C38.913 156.617 38.349 151.827 38.837 146.98C39.228 143.085 39.884 139.269 41.506 135.64C44.331 129.32 49.292 125.553 55.668 123.374C58.114 122.538 60.637 121.973 63.077 121.284C63.411 120.812 62.99 120.199 63.484 119.82C63.949 119.997 63.901 120.579 64.349 120.862C67.568 119.733 70.657 118.318 73.068 115.537C71.257 114.447 69.363 114.193 67.399 114.297C64.399 114.457 61.435 115.131 58.417 115.008C55.213 114.877 52.176 114.175 49.822 111.794C47.05 108.99 45.221 105.641 44.538 101.749C43.757 97.3039 44.886 93.1529 47.053 89.3259C51.387 81.6719 54.309 73.4869 56.513 65.0189C59.256 54.4809 62.187 43.9999 66.077 33.8179C68.265 28.0899 71.679 23.1979 76.685 19.5649C80.127 17.0669 84.114 15.6869 88.131 14.4289C93.923 12.6149 99.759 10.9389 105.283 8.35194C108.284 6.94694 111.034 5.12394 113.906 3.50694C116.613 1.98294 119.434 0.689943 122.556 0.274943C125.346 -0.0960573 128.132 -0.340059 130.708 1.25094C133.049 2.69794 134.053 4.93694 134.583 7.49794C135.28 10.8679 133.675 15.3759 131.259 18.1519C135.788 17.8779 139.936 18.8819 143.401 21.9459C147.076 25.1959 149.357 29.3119 150.623 34.0159C151.663 37.8789 151.861 41.7879 151.275 45.7469C151.078 47.0789 150.939 48.4229 150.849 49.7669C150.583 53.6989 152.006 57.0829 154.25 60.2179C156.261 63.0269 158.856 65.3579 160.745 68.2679C162.012 70.2199 163.316 72.1419 164.419 74.1999C166.694 78.4419 166.967 82.7549 165.164 87.2339C163.016 92.5689 159.595 96.8379 154.763 99.9669C154.508 100.129 154.253 100.285 154 100.443ZM141.957 125.698C133.807 122.909 133.207 111.649 136.883 106.814C136.637 107.454 136.504 107.856 136.331 108.24C134.791 111.667 134.724 115.173 136.03 118.642C138.145 124.262 141.679 125.92 146.807 124.727C149.646 124.066 151.856 122.233 153.8 120.102C157.123 116.458 158.748 112.222 158.278 107.05C158.056 107.695 157.906 108.161 157.736 108.62C156.812 111.123 155.586 113.418 153.345 115.022C149.928 117.467 144.897 116.018 143.86 112.209C143.188 109.74 144.152 107.633 145.765 105.797C147.774 103.51 150.215 101.738 152.831 100.233C157.911 97.3119 161.768 93.2959 164.148 87.9189C165.663 84.4959 166.308 80.9829 164.996 77.3299C163.712 73.7559 161.496 70.7229 159.308 67.6819C157.488 65.1519 155.124 63.0709 153.335 60.5079C150.764 56.8249 149.441 52.8559 150.178 48.3019C150.516 46.2089 150.698 44.0829 150.814 41.9639C150.981 38.9389 150.494 35.9719 149.588 33.0939C148.002 28.0559 145.296 23.7949 140.757 20.8819C140.072 20.4419 139.372 19.9939 138.387 19.8769C142.675 23.1929 146.59 28.5129 146.584 31.1429C146.392 30.7189 146.275 30.4559 146.155 30.1949C144.932 27.5399 143.402 25.0819 141.321 23.0139C138.676 20.3849 135.571 18.7329 131.74 18.6519C131.162 18.6399 130.716 19.0529 130.078 19.0209C130.666 17.2419 131.005 15.5629 130.767 13.7159C129.99 7.67394 124.806 5.33294 119.985 6.38194C117.282 6.96994 115.162 8.59694 113.237 10.4519C109.717 13.8439 107.484 18.0389 105.888 22.6149C105.518 23.6759 105.278 24.8009 104.643 25.7609C104.743 25.0989 104.913 24.4639 105.113 23.8379C106.857 18.3849 109.244 13.3069 113.647 9.43294C116.044 7.32394 118.655 5.66094 122.012 5.63894C127.105 5.60494 130.754 8.38294 131.364 13.8179C131.483 14.8789 131.232 15.9159 131.345 17.2299C133.366 14.2349 134.443 11.2289 133.937 7.88494C133.193 2.97394 130.148 0.610941 125.602 0.638941C122.136 0.659941 118.908 1.64494 115.826 3.19694C112.575 4.83294 109.596 6.94194 106.336 8.56494C103.796 9.82994 101.67 11.6709 99.967 13.9229C97.546 17.1239 95.946 20.7619 94.725 24.5659C92.179 32.4959 89.972 40.5349 87.007 48.3299C84.43 55.1049 81.517 61.6799 76.443 67.0499C74.464 69.1439 72.456 71.1879 69.942 72.6539C69.596 72.8559 69.252 73.0739 68.644 73.0359C69.83 72.1789 70.922 71.5009 71.885 70.6729C76.778 66.4639 80.504 61.3789 83.172 55.5039C86.911 47.2719 89.583 38.6599 92.307 30.0649C93.83 25.2589 95.221 20.3929 97.974 16.0819C98.472 15.3029 98.949 14.5109 99.436 13.7249C97.624 15.1019 95.952 16.6049 94.283 18.1109C90.13 21.8589 86.296 25.9179 82.617 30.1239C79.338 33.8729 76.608 38.0189 74.097 42.3039C67.245 53.9949 61.267 66.0269 60.069 79.8279C59.734 83.6899 60 87.4999 61.529 91.1409C63.442 95.6979 66.562 98.8109 71.578 99.7499C74.017 100.207 76.48 100.652 78.809 101.494C85.154 103.788 89.941 111.233 89.221 118.608C89.202 118.805 89.146 118.99 88.812 118.998C88.951 116.893 88.925 114.794 88.199 112.804C87.499 110.885 86.887 108.864 85.021 107.666C81.695 105.53 77.903 104.859 74.084 104.489C70.089 104.103 66.43 103.067 63.36 100.35C60.057 97.4269 58.83 93.7389 59.106 89.4209C59.211 87.7759 59.822 86.1659 59.532 84.5039C59.17 82.4329 59.458 80.3689 59.624 78.3279C59.98 73.9639 61.079 69.7289 62.544 65.6129C67.488 51.7159 74.213 38.8249 84.102 27.7329C88.774 22.4919 93.833 17.6609 99.258 13.2099C100.558 12.1429 101.878 11.0999 103.263 9.98594C103.067 9.96994 102.99 9.93894 102.938 9.96194C98.453 11.9719 93.704 13.1979 89.031 14.6519C85.056 15.8889 81.086 17.1609 77.574 19.4799C72.839 22.6069 69.443 26.9489 67.318 32.1059C63.659 40.9859 61.027 50.2199 58.755 59.5459C56.207 70.0019 53.141 80.2509 47.598 89.5969C45.961 92.3559 45.079 95.4019 44.936 98.6059C44.752 102.731 46.328 106.301 48.699 109.571C50.17 111.599 52.047 113.108 54.496 113.757C57.146 114.459 59.853 114.362 62.549 114.069C64.764 113.829 66.976 113.395 69.205 113.624C72.622 113.975 75.357 115.191 75.019 119.411C74.762 122.622 71.672 124.944 68.509 124.258C67.362 124.009 66.357 123.48 65.231 122.893C65.553 123.652 66.034 124.068 66.53 124.478C68.04 125.724 69.858 126.147 71.719 126.129C74.019 126.107 76.198 125.498 77.377 123.262C78.531 121.074 78.839 118.742 77.969 116.349C76.586 112.545 71.875 110.076 67.626 109.742C64.953 109.532 62.33 110.101 59.693 110.447C57.554 110.728 55.389 110.928 53.271 110.313C51.707 109.859 50.173 109.301 49.013 108.066C49.268 108.116 49.497 108.221 49.701 108.363C51.949 109.923 54.484 110.496 57.157 110.318C59.402 110.169 61.641 109.859 63.867 109.515C66.988 109.032 69.981 109.396 72.811 110.768C76.567 112.589 79.179 115.4 78.836 119.803C78.589 122.971 77.375 125.74 73.512 126.448C72.594 126.616 71.686 126.662 70.795 126.583C67.77 126.315 65.398 125.038 64.23 122.035C64.092 121.68 64.077 121.217 63.642 120.924C63.421 123.033 64.238 124.677 65.5 126.168C68.23 129.395 74.361 130.849 78.848 129.027C82.409 127.581 85.051 124.872 84.782 120.269C84.762 119.931 84.756 119.59 84.783 119.253C84.806 118.958 84.644 118.642 84.921 118.236C85.5 121.465 85.16 124.363 83.02 126.948C84.303 127.167 85.433 126.86 86.57 126.613C90.1 125.846 92.99 123.974 94.918 120.992C96.96 117.832 97.243 114.226 96.417 110.572C95.611 107.003 93.771 103.905 91.865 100.842C91.651 100.498 91.248 100.209 91.344 99.4579C94.811 104.885 98.494 109.983 97.235 116.812C98.189 114.03 98.244 111.248 97.653 108.428C96.913 104.899 94.915 102.005 92.931 99.1209C91.306 96.7589 89.654 94.4219 88.215 91.9369C86.419 88.8349 85.289 85.4339 83.746 82.2209C82.996 80.6579 82.414 79.0279 81.819 77.4229C78.005 79.3309 74.09 80.4759 69.92 80.4369C67.633 80.4159 65.461 79.8009 63.777 78.0729C63.402 77.6889 63.405 77.6859 63.298 76.9499C64.71 78.7769 66.569 79.4809 68.627 79.7659C70.141 79.9759 71.651 79.9059 73.161 79.6649C75.893 79.2289 78.62 78.6719 80.984 77.2029C86.677 73.6649 90.852 68.6689 93.672 62.6739C97.179 55.2179 99.767 47.3939 102.04 39.4759C102.753 36.9919 103.343 34.4719 104.007 31.8989C104.298 32.1829 104.261 32.4299 104.207 32.6399C103.255 36.3069 103.381 40.0729 103.302 43.8019C103.22 47.6509 103.279 51.4949 102.446 55.2809C102.302 55.9349 102.144 56.5859 101.977 57.2339C101.814 57.8669 101.63 58.4939 101.455 59.1239C101.676 58.9779 101.766 58.7999 101.847 58.6169C103.621 54.5999 104.08 50.3219 104.264 46.0079C104.419 42.3629 104.493 38.7199 104.867 35.0829C105.363 30.2619 106.48 25.6349 108.523 21.2269C109.538 19.0359 110.601 16.9139 112.616 15.4429C115.661 13.2199 118.992 13.1809 122.429 14.2119C125.331 15.0819 127.523 16.7449 128.371 19.8299C128.771 21.2839 128.643 22.7039 128.151 24.1519C131.217 24.0279 133.774 24.9679 135.66 27.2319C139.247 31.5359 140.468 36.5239 139.293 41.9829C138.583 45.2819 137.003 48.3609 136.739 51.7959C136.535 54.4609 136.405 57.0689 137.523 59.6279C138.863 62.6949 140.544 65.5699 142.233 68.4369C144.866 72.9049 146.017 77.6219 144.929 82.7539C143.53 89.3569 140.095 94.2389 133.45 96.5739C130.124 97.7429 126.972 99.3779 124.046 101.379C121.796 102.918 119.982 104.931 118.141 106.922C115.809 109.444 113.776 112.16 112.253 115.242C111.029 117.718 110.429 120.366 110.85 123.084C111.53 127.483 114.049 130.741 117.767 133.074C121.331 135.31 125.237 135.516 129.18 134.511C134.455 133.166 138.743 130.27 141.957 125.698ZM108.624 22.3999C110.304 20.9569 112.032 19.7309 114.098 19.1199C116.445 18.4259 119.348 18.8069 120.198 19.9769C117.606 18.9399 115.132 19.0809 112.755 20.1749C110.204 21.3499 107.967 22.8159 107.133 25.8279C106.261 28.9799 105.687 32.1739 105.313 35.4059C104.847 39.4369 104.958 43.5049 104.701 47.5519C104.536 50.1439 104.354 52.7359 103.634 55.2349C102.611 58.7819 101.336 62.2299 98.488 64.8009C96.716 66.3999 94.605 67.5379 92.409 68.3189C90.68 68.9339 89.612 70.0719 88.546 71.3669C88.181 71.8099 87.78 72.2249 87.388 72.6459C85.864 74.2809 84.158 75.7139 82.347 77.0619C83.557 80.0049 84.852 82.8589 86.416 85.5669C89.252 90.4769 92.793 94.7329 98.198 96.9929C103.277 99.1159 108.577 99.5509 113.952 98.5469C119.666 97.4799 124.29 94.7659 127.345 89.5639C130.645 83.9439 133.286 78.0049 136.151 72.1739C136.845 70.7609 137.138 69.1879 137.239 67.5889C137.488 63.6649 136.46 59.8989 135.9 56.0729C135.459 53.0569 135.326 50.0239 135.986 47.0099C136.564 44.3679 136.597 41.7439 135.9 39.1069C134.881 35.2549 132.911 31.8929 130.541 28.7629C128.253 25.7409 125.808 22.8429 122.242 21.1989C122.212 21.1849 122.224 21.0809 122.201 20.9039C123.112 21.0699 123.83 21.6459 124.684 21.9169C124.671 21.2199 124.431 20.7009 124.083 20.1889C123.122 18.7739 121.801 17.7939 120.307 17.0489C115.602 14.7049 110.041 16.2479 108.624 22.3999ZM88.063 89.7649C89.127 92.0209 90.09 94.3379 91.604 96.3459C93.413 98.7449 95.208 101.15 96.613 103.815C98.476 107.349 99.166 111.071 98.421 115.041C97.888 117.879 96.542 120.279 94.649 122.4C91.483 125.949 87.573 127.825 82.755 127.567C82.44 127.55 82.254 127.632 82.039 127.808C79.143 130.184 75.839 130.874 72.179 130.291C69.952 129.936 67.978 129.057 66.255 127.657C64.476 126.211 63.39 124.318 63.137 121.939C60.862 122.561 58.643 123.102 56.464 123.775C48.767 126.151 43.384 130.952 40.94 138.775C40.092 141.489 39.78 144.285 39.573 147.11C39.347 150.197 39.327 153.269 39.686 156.495C41.524 154.602 43.373 152.995 45.526 151.747C51.537 148.264 57.932 145.852 64.862 145.164C69.426 144.71 74.02 144.572 78.594 144.143C82.897 143.74 87.123 142.969 91.354 142.154C97.618 140.947 103.647 138.926 109.675 136.909C112.349 136.015 115.009 135.066 117.712 133.906C117.4 133.691 117.19 133.544 116.978 133.399C110.56 129.022 108.167 121.815 111.952 114.561C114.416 109.838 117.926 105.975 121.823 102.447C122.836 101.53 123.664 100.734 123.408 99.2699C123.369 99.0479 123.468 98.8049 123.496 98.5699C123.663 97.1429 124.095 95.7709 124.483 94.2859C115.253 102.199 96.242 101.547 88.063 89.7649ZM173.675 109.335C171.33 105.089 167.801 102.55 163.417 101.237C159.371 100.025 155.404 100.728 151.591 102.376C148.773 103.594 146.555 105.563 145.1 108.245C143.387 111.405 144.815 114.508 148.301 115.33C150.201 115.779 152.032 115.409 153.51 114.065C156.186 111.632 157.737 108.618 157.959 104.968C157.97 104.791 157.876 104.537 158.27 104.501C159.416 107.084 159.267 109.811 158.922 112.65C160.81 111.874 162.499 111.122 164.228 110.481C167.211 109.374 170.246 108.545 173.675 109.335ZM137.745 61.5679C137.558 62.0499 137.643 62.3709 137.675 62.6939C137.913 65.0829 138.028 67.4659 137.431 69.8309C136.648 72.9299 135.104 75.7019 133.615 78.4789C132.808 79.9829 132.658 81.4059 133.065 83.0159C133.475 84.6419 133.938 86.2869 133.937 87.9709C133.936 91.1429 132.998 94.0569 131.092 96.8129C132.028 96.4829 132.838 96.2019 133.645 95.9119C135.496 95.2469 137.254 94.3979 138.738 93.0869C144.05 88.3959 146.214 79.9939 143.797 73.2979C142.306 69.1649 139.573 65.6729 137.745 61.5679ZM102.999 38.1999C102.789 38.7519 102.598 39.1349 102.496 39.5389C101.681 42.7549 100.669 45.914 99.578 49.042C97.867 53.949 96.225 58.8859 93.928 63.5669C93.103 65.2469 92.056 66.7959 91.02 68.3779C91.174 68.4279 91.248 68.4819 91.296 68.4639C95.973 66.7389 99.503 63.8789 101.051 58.9159C102.583 54.0029 103.037 48.9799 102.869 43.8739C102.809 42.0389 103.275 40.2169 102.999 38.1999ZM132.276 81.4299C132.037 81.9219 131.887 82.2139 131.751 82.5129C130.127 86.0759 128.306 89.5259 125.886 92.6249C125.503 93.1149 125.24 93.6309 125.089 94.2239C124.563 96.2879 124.182 98.3729 124.09 100.613C125.682 99.4859 127.416 98.8119 129.049 97.9439C129.595 97.6539 130.064 97.2719 130.429 96.7739C132.602 93.8089 133.28 90.4349 133.015 86.8519C132.886 85.1109 132.549 83.3859 132.276 81.4299ZM84.725 106.775C82.977 104.557 80.856 102.858 78.171 102.031C76.059 101.381 73.893 100.901 71.743 100.38C69.509 99.8389 67.322 99.2269 65.503 97.7019C62.535 95.2129 60.908 91.9509 59.968 88.2799C59.923 88.1029 60.002 87.8409 59.664 87.8779C58.962 91.1079 59.441 94.2069 61.125 96.9909C63.21 100.438 66.57 102.22 70.356 103.223C72.601 103.818 74.952 103.846 77.223 104.305C79.813 104.83 82.358 105.523 84.725 106.775ZM136.224 50.9329C136.592 48.5549 137.354 46.2989 138.14 44.0539C140.136 38.3459 139.321 33.0509 135.768 28.1989C133.929 25.6879 131.255 24.7969 127.965 24.5579C131.473 28.2879 134.108 32.2469 135.848 36.7689C137.643 41.4359 136.731 46.1809 136.224 50.9329ZM127.391 23.9329C127.495 23.8579 127.54 23.8439 127.547 23.8189C127.651 23.4679 127.782 23.1219 127.844 22.7639C128.242 20.4389 127.795 18.3069 125.977 16.7269C122.869 14.0259 119.24 13.3959 115.319 14.4939C113.844 14.9069 112.797 15.6889 112.313 16.4729C114.107 15.6379 115.889 15.3319 117.834 15.6059C121.259 16.0889 124.671 18.9179 125.394 22.1229C125.457 22.4009 125.613 22.5009 125.798 22.6439C126.329 23.0569 126.845 23.4889 127.391 23.9329ZM64.683 121.51C66.416 123.941 70.369 124.422 72.795 122.623C74.482 121.372 75.117 117.417 73.463 116.041C71.282 119.027 67.999 120.29 64.683 121.51Z" fill="#FAFAF9"/>
<path d="M133.815 125.867C132.256 127.469 130.282 128.327 128.134 128.612C122.985 129.297 117.87 125.759 116.821 120.715C116.236 117.905 116.948 115.171 118.009 112.537C119.675 108.399 122.66 105.594 126.506 103.394C132.086 100.202 138.085 98.016 143.952 95.497C147.67 93.901 151.363 92.206 154.144 89.086C157.098 85.773 158.938 82.012 158.753 77.474C158.651 74.968 157.684 72.7 156.585 70.483C154.753 66.787 152.196 63.599 149.614 60.425C147.547 57.883 145.875 55.159 145.464 51.802C145.181 49.49 145.442 47.228 145.851 44.967C146.435 41.733 147.409 38.554 147.201 35.207C147.174 34.777 147.065 34.364 147.074 33.916C147.448 34.34 147.542 34.864 147.575 35.386C147.701 37.383 147.433 39.348 147.089 41.31C146.66 43.754 146.09 46.171 145.941 48.665C145.688 52.903 147.285 56.411 149.946 59.576C153.079 63.303 156.05 67.129 158.013 71.663C160.618 77.681 159.497 83.097 155.653 88.137C153.705 90.692 151.14 92.57 148.48 94.305C144.869 96.66 141.27 99.039 137.575 101.256C134.657 103.007 131.668 104.629 128.985 106.751C125.541 109.476 123.341 112.908 123.018 117.341C122.771 120.736 124.453 125.323 128.117 127.116C129.287 127.688 130.402 127.845 131.565 127.139C132.302 126.694 133.064 126.29 133.815 125.867ZM146.35 95.236C146.319 95.177 146.287 95.117 146.256 95.057C145.477 95.418 144.708 95.802 143.918 96.137C137.876 98.691 131.774 101.088 126.07 104.405C122.322 106.585 119.728 109.551 118.247 113.578C117.394 115.898 116.851 118.316 117.421 120.711C118.386 124.767 121.327 127.053 125.176 128.161C126.253 128.471 127.511 128.413 128.906 128.007C127.244 127.356 125.962 126.626 125.041 125.401C122.396 121.881 121.82 118.008 123.132 113.838C124.385 109.855 127.233 107.178 130.528 104.868C134.067 102.387 137.979 100.524 141.589 98.16C143.147 97.139 144.761 96.208 146.35 95.236Z" fill="#FAFAF9"/>
<path d="M119.992 81.769C118.277 83.249 117.012 85.015 115.523 86.57C112.391 89.843 107.43 89.864 104.276 86.627C102.752 85.063 101.505 83.24 99.718 81.76C101.493 80.727 102.605 79.234 103.657 77.641C104.684 76.084 106.728 75.689 108.423 76.748C109.491 77.415 110.276 77.374 111.338 76.738C113.194 75.626 115.182 76.1569 116.321 77.9989C117.261 79.5179 118.435 80.771 119.992 81.769ZM112.414 82.425C110.652 81.705 109.057 81.696 107.351 82.442C109.081 83.125 110.684 83.136 112.414 82.425Z" fill="#FAFAF9"/>
<path d="M134.002 46.3658C126.542 46.2198 119.453 47.8328 112.519 50.3448C112.257 49.9288 112.455 49.5628 112.641 49.2078C113.188 48.1598 113.771 47.1248 114.537 46.2228C115.253 45.3788 116.368 45.2558 117.337 44.9648C120.651 43.9688 124.065 43.5288 127.521 43.7088C129.936 43.8348 131.937 45.1678 134.002 46.3658Z" fill="#FAFAF9"/>
<path d="M114.018 46.0688C113.096 47.4988 112.348 48.9988 111.663 50.7328C111.438 49.2618 112.764 46.6558 114.018 46.0688Z" fill="#FAFAF9"/>
<path d="M34.905 145.64C36.469 143.913 38.188 142.794 39.806 141.339C39.799 142.229 39.562 142.761 38.903 143.172C37.701 143.921 36.536 144.721 35.564 145.789C34.923 146.493 34.689 147.126 34.92 148.132C36.934 156.919 39.833 165.385 43.934 173.421C45.004 175.518 46.236 177.533 47.395 179.585C47.538 179.838 47.76 180.06 47.674 180.414C47.121 180.059 46.881 179.483 46.552 178.987C43.975 175.098 41.839 170.966 40.106 166.646C39.488 165.105 38.443 164.194 37.114 163.399C30.727 159.58 24.476 155.56 18.954 150.527C15.376 147.266 11.865 143.931 8.32599 140.629C8.18199 140.494 7.99 140.389 7.976 140.149C8.143 139.948 8.32399 140.028 8.50099 140.127C13.811 143.124 19.38 145.623 24.731 148.542C28.588 150.646 32.258 152.973 34.808 156.678C35.8 158.119 36.713 159.614 37.695 161.134C37.867 160.875 37.756 160.693 37.685 160.487C36.19 156.197 34.924 151.84 33.956 147.4C33.834 146.838 33.499 146.552 33.04 146.279C30.891 144.999 28.58 144.047 26.354 142.923C20.889 140.165 16.306 136.302 12.485 131.577C8.575 126.743 4.68099 121.896 0.746994 117.08C0.458994 116.728 0.117 116.395 0 115.917C0.468 115.663 0.73599 116.017 1.03299 116.185C4.10099 117.922 6.783 120.197 9.565 122.332C13.318 125.213 17.103 128.053 20.801 131.003C24.682 134.099 28.102 137.648 30.875 141.793C31.6 142.878 32.384 143.923 33.359 144.899C33.123 143.568 32.867 142.241 32.654 140.906C32.261 138.444 31.819 135.986 31.548 133.51C31.418 132.321 30.703 131.594 29.951 130.92C27.935 129.115 25.883 127.342 23.757 125.669C19.428 122.263 16.249 117.927 13.456 113.258C10.471 108.267 8.445 102.828 6.116 97.5319C5.196 95.4389 4.253 93.3559 3.342 91.2589C3.234 91.0099 2.981 90.7619 3.136 90.4369C3.517 90.2579 3.59899 90.5749 3.76399 90.7709C6.85599 94.4409 9.565 98.4069 12.543 102.165C15.375 105.74 18.422 109.141 20.936 112.97C23.864 117.428 26.333 122.139 28.86 126.823C29.527 128.058 30.294 129.239 31.146 130.663C31.064 127.705 30.786 125.03 30.64 122.347C30.4 117.943 30.509 113.545 30.543 109.144C30.548 108.441 30.383 107.938 29.923 107.42C27.724 104.938 25.502 102.473 23.396 99.9129C18.104 93.4809 14.99 86.0419 13.391 77.9169C13.01 75.9829 12.524 74.0699 12.084 72.1479C11.979 71.6899 11.962 71.2339 12.039 70.7159C12.651 70.8399 12.768 71.3559 12.99 71.7259C16.24 77.1319 18.982 82.8259 22.229 88.2279C25.009 92.8539 27.024 97.7909 28.868 102.825C29.275 103.935 29.874 104.952 30.629 106.173C30.797 104.269 30.964 102.588 31.09 100.903C31.369 97.1659 31.87 93.4549 32.442 89.7549C32.545 89.0879 32.469 88.5289 32.178 87.9149C31 85.4299 29.327 83.2599 27.856 80.9619C24.687 76.0119 22.855 70.5819 21.936 64.8019C21.608 62.7409 21.314 60.6809 21.169 58.5999C21.141 58.2019 21.08 57.7819 21.703 57.3259C23.412 60.4769 24.187 63.9609 25.666 67.1419C27.17 70.3779 28.562 73.6719 29.61 77.0859C30.653 80.4809 31.571 83.9139 32.786 87.3369C33.018 86.1839 33.267 85.0329 33.478 83.8759C34.24 79.7029 35.257 75.5899 36.406 71.5099C36.618 70.7579 36.617 70.0759 36.388 69.3429C36.005 68.1149 35.503 66.9399 34.88 65.8199C33.348 63.0649 32.723 60.0599 32.299 56.9779C31.975 54.6249 31.844 52.2679 31.926 49.9029C32.08 45.4819 32.736 41.1399 34.145 36.9309C34.266 36.5699 34.276 36.1209 34.895 35.8769C35.461 41.4049 36.004 46.8719 36.583 52.3349C37.165 57.8209 36.979 63.3279 37.138 68.8559C37.777 66.9249 38.388 64.9839 39.061 63.0649C40.4 59.2479 41.915 55.4999 43.613 51.8279C43.813 51.3959 43.911 51.0089 43.777 50.4879C42.969 47.3439 42.423 44.1569 42.697 40.8929C42.947 37.9129 43.407 34.9599 44.014 32.0299C44.302 30.6409 44.373 29.2049 44.869 27.6889C45.645 28.4889 45.686 29.3979 45.698 30.1979C45.789 36.0769 45.764 41.9539 44.548 47.7489C44.45 48.2139 44.458 49.3089 44.574 49.6799C45.616 47.7299 46.552 45.8059 47.642 43.9739C49.427 40.9749 50.491 37.6719 51.835 34.4859C53.766 29.9099 56.837 26.2699 60.934 23.4769C61.859 22.8459 62.75 22.1659 63.746 21.5859C62.789 23.5929 61.962 25.6269 60.78 27.4939C58.618 30.9099 56.112 34.0429 53.236 36.8799C51.042 39.0449 49.576 41.6939 48.149 44.3809C46.648 47.2069 45.264 50.0869 43.951 53.0039C43.85 53.2289 43.624 53.4539 43.788 53.8649C44.431 53.0789 45.024 52.3299 45.642 51.6029C48.013 48.8119 51.064 46.9659 54.319 45.4149C57.483 43.9069 60.621 42.3519 63.592 40.4809C63.748 40.3829 63.891 40.1839 64.149 40.2779C64.405 40.7379 64.021 41.0329 63.809 41.3339C61.791 44.1969 59.165 46.4039 56.281 48.3509C53.302 50.3619 50.128 51.9609 46.759 53.2019C44.297 54.1089 42.624 55.7379 41.707 58.3039C40.111 62.7729 38.553 67.2499 37.23 71.8069C37.194 71.9309 37.205 72.0699 37.318 72.3289C41.845 62.2439 50.834 57.4359 60.087 52.7899C60.139 53.4999 59.586 53.5889 59.231 53.7849C55.721 55.7219 52.131 57.5199 48.859 59.8659C44.202 63.2059 40.712 67.1539 38.729 71.4839C42.299 68.7779 45.658 66.2329 49.015 63.6859C52.407 61.1129 55.798 58.5379 59.31 55.8729C59.388 56.5719 59.166 56.9629 58.716 57.3119C53.342 61.4689 47.946 65.5949 42.354 69.4579C40.277 70.8929 38.506 72.6549 36.83 74.5189C35.899 75.5549 35.905 76.9579 35.603 78.2109C34.382 83.2839 33.508 88.4269 32.744 93.5879C32.717 93.7729 32.741 93.9659 32.741 94.4469C34.807 90.1249 35.667 85.6399 37.805 81.6539C39.992 77.5759 42.988 74.1549 46.252 70.9439C49.478 67.7709 52.859 64.7809 56.673 62.3539C57.002 62.6479 56.879 62.8479 56.731 63.0469C51.638 69.8669 47.296 77.2089 42.178 84.0109C40.16 86.6929 37.735 89.0219 35.549 91.5589C34.215 93.1079 33.248 94.8959 32.506 96.7809C31.972 98.1379 32.052 99.6409 31.952 101.073C31.655 105.323 31.507 109.583 31.303 113.839C31.295 114.006 31.302 114.174 31.302 114.616C32.165 113.004 32.627 111.511 33.163 110.051C35.592 103.429 39.713 98.0719 45.293 93.7699C45.386 94.2179 45.325 94.5729 44.96 94.8689C39.477 99.3069 35.793 104.985 33.44 111.581C33.284 112.017 33.09 112.439 33.061 112.996C34.392 111.805 35.716 110.606 37.056 109.424C38.429 108.213 39.74 106.938 40.968 105.582C42.189 104.234 43.374 102.854 44.598 101.461C44.98 102.125 44.431 102.453 44.158 102.786C41.515 106.013 38.582 108.967 35.51 111.785C34.263 112.929 33.077 114.118 32.062 115.493C31.475 116.288 31.254 117.049 31.313 118.005C31.539 121.683 31.712 125.365 31.921 129.045C31.948 129.513 32.073 129.975 32.188 130.644C33.986 126.34 35.842 122.255 38.399 118.529C40.979 114.769 44.315 111.801 47.959 109.081C48.56 109.682 47.943 109.881 47.679 110.081C46.002 111.35 44.436 112.741 42.936 114.212C39.081 117.992 36.616 122.669 34.343 127.471C33.872 128.466 33.424 129.472 33.039 130.532C35.423 127.813 38.242 125.558 40.738 122.968C43.957 119.627 47.246 116.353 50.5 113.047C50.825 112.717 51.122 112.361 51.648 112.999C50.333 114.356 48.995 115.728 47.667 117.11C43.161 121.798 38.52 126.352 33.821 130.842C32.567 132.041 32.225 133.228 32.527 134.853C33.137 138.127 33.635 141.423 34.184 144.709C34.193 144.762 34.262 144.804 34.386 144.947C34.771 143.734 35.069 142.562 35.515 141.437C37.635 136.093 41.204 131.822 45.356 127.963C48.555 124.99 51.716 121.976 54.903 118.99C55.833 118.119 56.795 117.282 57.791 116.385C57.882 117.423 54.48 123.84 53.501 124.236C54.626 122.104 55.656 120.152 56.826 117.934C55.087 119.302 53.776 120.687 52.443 122.045C49.077 125.476 45.41 128.608 42.233 132.226C38.995 135.914 36.418 139.989 35.041 144.748C34.987 144.939 34.979 145.142 34.905 145.64ZM29.824 129.583C29.346 128.733 28.839 127.897 28.394 127.03C25.337 121.077 21.797 115.418 17.893 109.994C15.21 106.267 12.085 102.877 9.414 99.1339C7.91 97.0269 6.443 94.8909 4.78 92.8799C4.554 93.1929 4.792 93.3849 4.884 93.5719C6.281 96.4089 7.543 99.3059 8.752 102.226C10.934 107.492 13.496 112.544 16.734 117.258C20.208 122.318 25.288 125.655 29.824 129.583ZM1.43599 117.248C1.60099 117.458 1.76199 117.671 1.93199 117.877C4.47399 120.947 7.141 123.911 9.562 127.084C12.725 131.231 16.11 135.167 20.323 138.336C23.933 141.051 28.02 142.854 32.116 144.951C32.021 144.719 32 144.626 31.951 144.551C28.61 139.401 24.539 134.907 19.748 131.073C15.105 127.358 10.304 123.844 5.707 120.069C4.39 118.989 3.03799 117.941 1.43599 117.248ZM37.86 162.777C36.94 161.37 36.107 160.103 35.283 158.831C33.195 155.607 30.574 152.95 27.304 150.882C22.566 147.886 17.479 145.546 12.583 142.85C11.953 142.503 11.37 142.046 10.563 141.828C14.402 146.796 32.173 160.445 37.86 162.777ZM28.783 104.435C27.534 101.501 26.481 98.3019 24.913 95.3339C21.214 88.3309 17.381 81.3989 13.832 74.3169C13.426 73.5079 12.97 72.7239 12.45 71.7679C14.604 84.5039 19.145 95.8319 28.783 104.435ZM34.981 91.0189C35.459 90.5169 35.853 90.1019 36.248 89.6869C38.794 87.0189 41.273 84.2919 43.351 81.2319C46.841 76.0939 50.227 70.8839 53.864 65.8459C54.137 65.4679 54.565 65.1639 54.678 64.4209C49.748 68.4639 45.183 72.5649 41.378 77.4449C38.259 81.4459 36.516 86.0989 34.981 91.0189ZM34.496 37.7739C34.283 38.0729 34.206 38.3439 34.129 38.6339C33.464 41.1289 32.936 43.6459 32.697 46.2219C32.219 51.3549 32.323 56.4459 33.735 61.4499C34.317 63.5139 35.384 65.3399 36.505 67.4569C36.719 64.0369 36.576 60.9329 36.335 57.8379C36.076 54.5129 35.682 51.1979 35.375 47.8759C35.066 44.5329 34.791 41.1859 34.496 37.7739ZM21.699 58.2499C20.962 64.8039 26.229 79.5749 30.654 83.6299C28.569 74.8359 24.288 66.8449 21.699 58.2499ZM50.927 38.7269C55.253 33.4129 59.956 28.7279 62.821 22.6539C56.704 26.3489 53.085 31.8379 50.927 38.7269ZM62.316 41.8319C59.474 43.5339 56.507 44.9599 53.567 46.4379C51.084 47.6849 48.756 49.1669 46.844 51.2189C46.247 51.8589 45.69 52.5359 45.114 53.1969C52.261 50.2849 61.017 44.4579 62.316 41.8319ZM44.058 48.4809C44.525 41.7669 45.281 35.2449 45.13 28.4699C43.425 31.7129 42.75 44.6659 44.058 48.4809Z" fill="#FAFAF9"/>
<path d="M171.902 161.312C172.847 159.843 173.756 158.349 174.745 156.909C177.292 153.202 180.956 150.862 184.812 148.759C190.165 145.841 195.731 143.333 201.047 140.344C201.239 140.236 201.41 140.183 201.688 140.38C200.581 141.439 199.505 142.502 198.393 143.526C195.082 146.576 191.859 149.719 188.436 152.65C184.465 156.051 180.018 158.762 175.703 161.665C174.221 162.662 172.667 163.553 171.138 164.479C170.438 164.903 170.045 165.529 169.737 166.27C167.741 171.07 165.426 175.704 162.485 180.008C162.328 180.238 162.163 180.435 161.924 180.605C161.759 180.169 162.097 179.904 162.268 179.623C167.638 170.855 171.36 161.409 173.871 151.464C174.159 150.325 174.355 149.158 174.713 148.042C174.947 147.311 174.74 146.803 174.285 146.298C173.65 145.593 172.987 144.921 172.192 144.389C167.307 141.119 163.477 136.828 160.209 131.996C159.093 130.347 158.006 128.679 156.9 127.023C156.388 126.256 156.095 125.412 155.978 124.491C158.6 128.4 161.191 132.328 164.281 135.882C167.372 139.438 170.847 142.603 174.56 145.545C174.799 145.136 174.474 144.714 174.35 144.327C172.907 139.819 170.419 135.92 167.313 132.388C164.804 129.534 161.957 127.019 159.273 124.34C159.039 124.107 158.444 123.886 159.08 123.407C161.954 126.178 165.051 128.72 167.726 131.693C171.218 135.574 173.904 139.924 175.333 145.088C175.57 143.833 175.839 142.583 176.036 141.322C176.447 138.695 176.797 136.059 177.225 133.435C177.332 132.778 176.983 132.415 176.623 132.026C174.644 129.887 172.5 127.915 170.409 125.888C167.59 123.154 164.877 120.311 162.121 117.512C162.032 117.422 161.968 117.307 161.881 117.19C162.52 116.861 162.903 117.174 163.303 117.578C166.069 120.368 168.809 123.185 171.636 125.913C173.288 127.507 174.962 129.077 176.554 130.75C174.121 125.194 171.603 119.696 167.377 115.148C168.208 114.835 168.555 115.373 168.941 115.824C172.087 119.51 174.323 123.736 176.239 128.151C176.598 128.979 176.944 129.813 177.326 130.717C177.82 129.405 177.728 128.088 177.829 126.823C178.075 123.722 178.126 120.606 178.277 117.497C178.302 116.99 178.158 116.579 177.866 116.188C177.179 115.267 176.55 114.295 175.675 113.533C175.154 113.079 175.011 112.486 174.825 111.759C175.504 112.304 176.114 112.729 176.646 113.286C175.834 111.036 174.989 108.812 173.94 106.662C171.296 101.242 167.262 97.0289 162.565 93.3759C162.313 93.1799 161.812 93.0069 162.069 92.6389C162.417 92.1409 162.697 92.6919 162.95 92.8879C166.736 95.8279 170.247 99.0349 172.858 103.115C174.853 106.232 176.237 109.627 177.473 113.094C177.651 113.595 177.884 114.076 178.245 114.552C178.245 113.908 178.272 113.262 178.241 112.619C178.057 108.904 177.741 105.191 177.694 101.474C177.631 96.4779 175.208 92.7319 171.858 89.3389C169.935 87.3919 168.163 85.2949 166.512 83.1009C166.072 82.5169 165.947 81.9099 165.832 80.9289C168.525 84.7739 171.473 88.0059 174.576 91.1839C172.938 85.7439 170.837 80.6059 167.102 76.2739C165.575 74.5029 163.995 72.7869 162.323 71.1529C161.743 70.5859 161.357 69.9059 161.072 69.1449C162.71 70.4029 164.077 71.9269 165.51 73.3849C170.032 77.9869 173.052 83.4389 174.856 89.6129C175.341 91.2719 176.06 92.8619 176.894 94.4189C176.607 92.4579 176.369 90.4879 176.023 88.5379C175.289 84.4009 174.474 80.2799 173.446 76.2019C173.254 75.4409 172.861 74.8749 172.376 74.2989C169.835 71.2779 166.502 69.2369 163.376 66.9329C160.002 64.4469 156.673 61.8999 153.31 59.3989C152.761 58.9909 152.512 58.4309 152.381 57.6969C158.456 62.3019 164.532 66.9079 170.607 71.5129C170.88 71.2989 170.634 71.1519 170.557 71.0049C167.375 64.8599 162.275 60.6899 156.414 57.3149C154.721 56.3399 152.988 55.4349 151.282 54.4819C150.999 54.3239 150.519 54.2699 150.716 53.6279C159.552 58.0569 167.934 62.9259 172.236 72.5289C172.299 71.5189 171.945 70.6659 171.689 69.8049C170.526 65.9009 169.12 62.0789 167.755 58.2419C166.897 55.8299 165.269 54.3049 163.017 53.4809C158.797 51.9359 154.915 49.8289 151.318 47.1509C150.783 46.7529 150.604 46.4089 150.937 45.7519C155.168 48.7079 159.415 51.6539 164.39 53.4709C161.112 48.5769 155.773 46.6419 151.041 43.8499C153.861 44.9549 156.594 46.1749 159.163 47.7379C161.808 49.3469 163.876 51.5549 165.749 54.0839C165.983 53.6689 165.711 53.4239 165.617 53.2019C163.805 48.9519 161.613 44.8899 159.4 40.8439C158.625 39.4269 157.476 38.2269 156.328 37.0869C151.944 32.7359 148.437 27.7839 145.882 22.1589C145.826 22.0349 145.728 21.9369 145.931 21.7219C147.718 23.0299 149.576 24.2619 151.276 25.7219C154.947 28.8759 157.271 32.8909 158.808 37.4069C160.118 41.2599 162.336 44.6609 164.131 48.2729C164.386 48.7849 164.658 49.2889 165.067 49.7789C164.811 46.1549 164.036 42.5869 163.995 38.9399C163.954 35.2929 163.461 31.6359 164.534 28.0499C165.256 29.4159 165.302 30.8919 165.579 32.3149C166.344 36.2469 167.036 40.1869 166.904 44.2229C166.831 46.4609 166.241 48.6019 165.77 50.7669C165.694 51.1139 165.684 51.3989 165.837 51.7339C168.35 57.2219 170.517 62.8429 172.272 68.6199C172.317 68.7689 172.402 68.9059 172.588 69.0459C171.958 57.9979 173.652 47.1179 174.653 36.1939C175.288 36.0909 175.272 36.6219 175.363 36.9049C176.499 40.4689 177.238 44.1019 177.501 47.8509C177.689 50.5289 177.741 53.1919 177.446 55.8489C177.071 59.2269 176.548 62.5839 174.893 65.6359C174.732 65.9329 174.584 66.2359 174.42 66.5309C173.169 68.7949 172.8 71.0209 173.644 73.6469C175.074 78.0949 175.945 82.7079 176.696 87.3289C176.705 87.3839 176.772 87.4289 176.971 87.6739C178.574 82.4759 179.655 77.2539 181.768 72.3709C183.881 67.4899 185.84 62.5449 187.695 57.5219C188.574 57.9269 188.429 58.4479 188.401 58.8879C188.235 61.4749 187.781 64.0209 187.351 66.5759C186.238 73.1889 183.43 79.0389 179.534 84.4229C179.337 84.6959 179.191 85.0079 178.98 85.2679C177.146 87.5369 176.922 90.0319 177.522 92.8399C178.098 95.5369 178.289 98.3179 178.491 101.081C178.613 102.762 178.774 104.44 178.931 106.279C179.749 105.179 180.273 104.08 180.733 102.942C182.144 99.4489 183.225 95.8179 185.068 92.5069C188.906 85.6109 192.759 78.7229 196.622 71.8399C196.81 71.5039 196.952 71.0849 197.451 70.9069C197.852 71.7039 197.505 72.5149 197.335 73.2199C196.21 77.8689 195.363 82.5909 193.67 87.0949C191.367 93.2209 187.848 98.5549 183.386 103.311C181.975 104.815 180.68 106.428 179.336 107.995C179.085 108.287 179.003 108.613 179.017 109.02C179.191 114.336 179.139 119.651 178.857 124.962C178.757 126.844 178.55 128.72 178.373 130.817C179.696 128.938 180.754 127.143 181.685 125.29C185.566 117.566 190.176 110.348 195.847 103.79C198.493 100.731 200.787 97.3669 203.254 94.1529C204.118 93.0279 205.026 91.9369 205.907 90.8249C206.041 90.6549 206.165 90.5129 206.46 90.6319C206.597 91.1139 206.236 91.5089 206.069 91.8929C203.611 97.5349 201.22 103.21 198.594 108.774C196.063 114.137 192.984 119.204 188.641 123.325C186.092 125.744 183.3 127.906 180.62 130.188C180.259 130.495 179.921 130.828 179.565 131.142C178.501 132.079 177.996 133.245 177.867 134.668C177.575 137.891 176.964 141.071 176.354 144.247C176.297 144.542 176.194 144.818 176.325 145.165C177.099 144.503 177.595 143.649 178.114 142.844C181.762 137.185 186.607 132.708 191.928 128.683C196.535 125.199 201.113 121.678 205.724 118.2C206.635 117.513 207.635 116.94 208.61 116.34C208.873 116.178 209.134 115.879 209.599 116.118C209.11 117.129 208.368 117.952 207.659 118.767C203.529 123.511 199.875 128.647 195.725 133.368C191.802 137.831 187.139 141.364 181.723 143.874C180.071 144.64 178.458 145.491 176.826 146.301C176.128 146.647 175.729 147.116 175.541 147.958C174.573 152.29 173.363 156.559 171.87 160.743C171.816 160.895 171.795 161.058 171.759 161.216C171.807 161.251 171.854 161.282 171.902 161.312ZM204.974 93.1129C204.556 93.2129 204.454 93.4759 204.303 93.6809C202.505 96.1249 200.78 98.6259 198.903 101.007C194.2 106.972 189.449 112.89 185.541 119.438C183.511 122.84 181.771 126.393 179.799 129.831C181.361 128.589 182.812 127.23 184.392 126.042C189.031 122.554 192.623 118.19 195.572 113.225C198.434 108.405 200.414 103.184 202.687 98.0939C203.421 96.4509 204.187 94.8239 204.974 93.1129ZM177.367 145.204C178.691 144.544 179.757 143.978 180.852 143.474C186.737 140.762 191.887 137.067 196.086 132.104C199.84 127.667 203.297 122.986 207.159 118.637C207.46 118.298 207.928 118.018 207.965 117.298C207.501 117.609 207.169 117.827 206.84 118.051C205.107 119.234 203.498 120.579 201.872 121.9C196.914 125.929 191.654 129.577 186.872 133.832C183.204 137.098 180.186 140.893 177.367 145.204ZM171.968 162.9C181.991 157.412 190.808 150.215 199.065 141.979C198.696 142.135 198.483 142.208 198.288 142.311C194.775 144.17 191.306 146.119 187.743 147.878C180.889 151.262 175.282 155.921 171.968 162.9ZM196.996 72.1199C191.897 83.1569 184.886 93.2459 180.823 104.641C190.421 96.0229 194.978 84.7109 196.996 72.1199ZM175.098 37.8239C174.837 40.8319 174.601 43.6169 174.352 46.4019C174.109 49.1189 173.853 51.8359 173.606 54.5529C173.417 56.6329 173.157 58.7099 173.069 60.7949C172.976 62.9909 173.048 65.1949 173.048 67.3949C173.376 67.1339 173.494 66.8269 173.665 66.5529C175.815 63.0969 176.711 59.2289 177.017 55.2649C177.304 51.5379 177.293 47.7699 176.609 44.0679C176.233 42.0419 175.925 39.9869 175.098 37.8239ZM187.912 58.4929C185.29 67.0729 180.992 75.0579 178.925 83.8499C185.144 76.5359 187.164 67.7399 187.912 58.4929ZM158.531 38.7699C157.578 33.2349 151.813 25.4659 146.775 22.9019C149.648 28.9439 154.32 33.6259 158.531 38.7699ZM165.566 48.5209C167.481 41.8539 165.626 35.3679 164.578 28.8399C164.304 35.4249 165.052 41.9579 165.566 48.5209Z" fill="#FAFAF9"/>
<path d="M160.267 95.1008C161.77 96.9198 163.009 98.7918 164.233 100.693C163.681 100.972 163.463 100.544 163.243 100.247C162.185 98.8168 161.175 97.3508 160.097 95.9358C159.791 95.5348 159.948 95.3768 160.267 95.1008Z" fill="#FAFAF9"/>
</svg>
